<svg xmlns="http://www.w3.org/2000/svg" viewBox="0 0 256 256" fill="none">
  <!-- Background circle with gradient -->
  <defs>
    <linearGradient id="bgGrad" x1="0%" y1="0%" x2="100%" y2="100%">
      <stop offset="0%" style="stop-color:#f97316"/>
      <stop offset="100%" style="stop-color:#ea580c"/>
    </linearGradient>
  </defs>
  
  <circle cx="128" cy="128" r="120" fill="url(#bgGrad)" stroke="#1e3a8a" stroke-width="8"/>
  
  <!-- Task list -->
  <rect x="48" y="72" width="112" height="12" rx="6" fill="white"/>
  <rect x="48" y="104" width="88" height="12" rx="6" fill="white"/>
  <rect x="48" y="136" width="72" height="12" rx="6" fill="white"/>
  <rect x="48" y="168" width="96" height="12" rx="6" fill="white"/>
  
  <!-- Checkmark -->
  <circle cx="192" cy="104" r="32" fill="#10b981" stroke="white" stroke-width="8"/>
  <path d="M176 104l12 12 20-20" stroke="white" stroke-width="10" stroke-linecap="round" stroke-linejoin="round" fill="none"/>
  
  <!-- Fire icon -->
  <g transform="translate(180,32)">
    <path d="M8 40c0-12 8-20 16-20 4 0 8 4 8 8 4-4 8-4 12 0 4 4 4 12 0 16 8 0 12 8 12 16 0 12-8 20-20 20H16c-8 0-8-8-8-20z" fill="#ef4444"/>
    <path d="M16 32c0-4 4-8 8-8s8 4 8 8c0 4 4 4 4 0 0-4 4-4 4 0 0 8-4 12-8 12s-8-4-8-12z" fill="#f97316"/>
  </g>
  
  <!-- T letter -->
  <text x="64" y="56" font-family="Arial Black, sans-serif" font-size="32" font-weight="900" fill="white">T</text>
</svg>
